<svg width="300" height="125" viewBox="0 0 300 125" fill="none" xmlns="http://www.w3.org/2000/svg">
<path d="M299.973 93.9208C299.894 93.9738 299.867 94.0533 299.867 94.1327C299.682 95.9602 298.926 97.5493 297.852 99.006C297.15 99.9727 296.288 100.781 295.333 101.509C293.226 103.111 290.879 104.197 288.267 104.674C286.968 104.899 285.656 104.978 284.343 104.926C281.4 104.793 278.55 104.157 275.739 103.297C275.169 103.125 274.599 102.966 274.016 102.886C273.154 102.754 272.597 102.74 272.001 103.893C271.868 104.157 271.762 104.436 271.656 104.714C271.59 104.873 271.497 104.952 271.324 104.952C271.218 104.952 271.112 104.952 271.006 104.952C270.516 104.952 270.516 104.939 270.502 104.449C270.502 104.383 270.502 104.316 270.502 104.263C270.502 99.7873 270.502 95.3246 270.502 90.8485C270.502 90.0672 270.489 90.1467 271.245 90.1467C271.55 90.1467 271.563 90.1599 271.643 90.4513C271.908 91.4577 272.213 92.4509 272.61 93.4044C273.34 95.1259 274.307 96.6753 275.673 97.9599C277.741 99.8933 280.154 101.138 282.964 101.588C284.118 101.774 285.284 101.827 286.451 101.694C288.572 101.456 290.335 100.529 291.621 98.7941C292.496 97.6023 292.801 96.2383 292.655 94.7684C292.589 94.1327 292.483 93.5103 292.271 92.9144C291.82 91.6431 291.065 90.5837 290.044 89.7229C289.063 88.9019 287.989 88.2265 286.889 87.5908C285.443 86.7566 283.945 85.9885 282.434 85.2734C280.578 84.3994 278.722 83.5121 276.959 82.4394C276.057 81.8833 275.182 81.2873 274.347 80.6384C272.279 79.0096 271.086 76.8908 270.688 74.3084C270.41 72.4677 270.449 70.6402 270.913 68.826C271.51 66.4555 272.783 64.4824 274.612 62.8668C276.627 61.079 278.987 60.0858 281.652 59.7415C282.01 59.7018 282.368 59.6621 282.726 59.6223C285.046 59.4369 287.286 59.8739 289.487 60.5625C290.296 60.8142 291.104 61.079 291.913 61.3306C292.258 61.4366 292.616 61.516 292.96 61.5955C293.106 61.6352 293.252 61.6484 293.398 61.6617C294.273 61.7676 294.936 61.4631 295.333 60.6553C295.479 60.3772 295.638 60.0991 295.771 59.8077C295.85 59.6488 295.957 59.5826 296.116 59.5826C296.142 59.5826 296.155 59.5826 296.182 59.5826C297.03 59.5958 296.938 59.4899 296.938 60.3109C296.938 64.7605 296.938 69.21 296.938 73.6596C296.938 74.4276 296.991 74.3482 296.261 74.3482C295.89 74.3482 295.89 74.3482 295.784 73.9906C295.453 72.8782 295.095 71.7659 294.657 70.6932C294.207 69.5941 293.69 68.5346 293.053 67.5282C291.529 65.0915 289.301 63.6746 286.531 63.0522C285.125 62.7476 283.707 62.6814 282.288 62.8138C280.233 62.9992 278.43 63.754 277.025 65.3299C276.336 66.098 275.898 66.972 275.832 68.0049C275.792 68.7995 275.911 69.5676 276.15 70.3224C276.402 71.1037 276.813 71.7923 277.33 72.4015C277.927 73.1034 278.616 73.686 279.372 74.2157C280.591 75.0633 281.904 75.7519 283.256 76.3875C285.616 77.4999 287.976 78.5991 290.335 79.7115C292.046 80.5193 293.676 81.4595 295.161 82.6381C296.566 83.7505 297.786 85.035 298.701 86.5976C299.125 87.3392 299.456 88.1073 299.695 88.9284C299.788 89.2594 299.881 89.5772 299.881 89.9216C299.881 90.0143 299.907 90.0805 300 90.1334C299.973 91.3782 299.973 92.6495 299.973 93.9208Z" fill="white"/>
<path d="M0 55.146C0.132573 55.2521 0.251889 55.3449 0.238632 55.557C0.225375 55.7293 0.132573 55.7691 0 55.7824C0 55.5702 0 55.3581 0 55.146Z" fill="#36AEBE"/>
<path d="M78.8414 75.1294C78.7221 75.3016 78.7618 75.5002 78.7618 75.6856C78.7618 76.7185 78.7618 77.7647 78.7618 78.7976C78.7618 83.6445 78.7618 88.5045 78.7618 93.3513C78.7618 94.7021 78.7883 96.0661 78.9209 97.4168C79.0137 98.2776 79.1463 99.1384 79.3584 99.9727C79.6633 101.165 80.3792 102.039 81.3868 102.727C82.1557 103.244 83.0174 103.535 83.9189 103.707C84.5022 103.813 85.0988 103.853 85.6954 103.853C86.4643 103.853 87.22 103.853 87.9889 103.853C88.201 103.853 88.2541 103.919 88.2673 104.118C88.2673 104.184 88.2673 104.25 88.2673 104.303C88.2673 104.978 88.2673 104.939 87.6442 104.939C78.5497 104.939 69.4552 104.939 60.3474 104.939C59.7111 104.939 59.7111 104.939 59.7243 104.316C59.7243 104.237 59.7243 104.144 59.7376 104.065C59.7508 103.945 59.8171 103.879 59.9497 103.866C60.122 103.853 60.2944 103.853 60.4535 103.853C61.2357 103.853 62.0178 103.853 62.8133 103.84C63.6883 103.826 64.5367 103.641 65.3587 103.336C66.0481 103.085 66.6579 102.701 67.2015 102.224C68.156 101.39 68.673 100.343 68.8719 99.0987C69.1105 97.6155 69.2033 96.1058 69.2431 94.6094C69.2563 93.934 69.2563 93.2586 69.2563 92.57C69.2563 79.3141 69.2563 66.0449 69.2563 52.789C69.2563 51.3456 69.2431 49.9021 69.1238 48.4719C69.031 47.439 68.8984 46.4061 68.6332 45.3996C68.3814 44.4594 67.8908 43.7046 67.1219 43.1086C66.2337 42.4068 65.2261 41.9962 64.139 41.7844C63.4894 41.6519 62.8398 41.6255 62.1769 41.6255C61.4743 41.6255 60.7717 41.6255 60.0823 41.6255C59.7906 41.6255 59.7641 41.5725 59.7508 41.2811C59.7508 41.1752 59.7508 41.0693 59.7508 40.9633C59.7641 40.5528 59.7641 40.5396 60.1883 40.5396C60.3607 40.5396 60.533 40.5396 60.6921 40.5396C67.9439 40.5396 75.1956 40.5396 82.4474 40.5396C84.2504 40.5396 86.0534 40.566 87.8564 40.672C90.4813 40.8309 93.093 41.1355 95.6384 41.7976C99.8012 42.8703 103.235 45.0818 105.939 48.4189C107.782 50.6967 108.909 53.2922 109.254 56.2056C109.598 59.1455 109.399 62.0589 108.418 64.8531C106.722 69.7264 103.42 73.0768 98.608 74.944C96.7785 75.6591 94.8695 76.0432 92.9206 76.255C90.9718 76.4669 89.023 76.4669 87.0742 76.3477C85.5496 76.2418 84.0382 76.0564 82.5269 75.8048C81.3603 75.6061 80.1936 75.3943 79.027 75.1294C78.9739 75.1162 78.9077 75.1294 78.8414 75.1294ZM78.7618 58.4436C78.7618 62.827 78.7618 67.2103 78.7618 71.5936C78.7618 72.3882 78.6558 72.2822 79.4512 72.4279C80.6841 72.653 81.9171 72.8517 83.15 73.0106C84.3697 73.1695 85.5894 73.2754 86.8223 73.2622C89.2616 73.2357 91.4358 72.4676 93.3714 70.9977C94.3789 70.2429 95.2407 69.3424 96.0096 68.3492C97.733 66.0582 98.5417 63.4361 98.7406 60.6154C98.8334 59.3309 98.8069 58.0331 98.6611 56.7486C98.3959 54.4973 97.7463 52.3653 96.6857 50.3524C95.9168 48.8957 94.9225 47.6111 93.6233 46.5782C90.879 44.4197 87.7105 43.6251 84.2769 43.7575C82.6462 43.8237 81.0421 44.1283 79.4512 44.4991C78.7088 44.6713 78.7751 44.4859 78.7751 45.3466C78.7618 49.7167 78.7618 54.0736 78.7618 58.4436Z" fill="white"/>
<path d="M174.745 96.609C174.493 96.8871 174.241 97.1784 173.989 97.4565C172.716 98.8735 171.377 100.238 169.919 101.469C168.408 102.74 166.751 103.747 164.855 104.329C161.182 105.468 157.683 105.018 154.408 103.032C151.796 101.443 149.794 99.2575 148.257 96.6355C147.063 94.6094 146.321 92.4111 145.857 90.1068C145.3 87.3656 145.221 84.5979 145.393 81.8169C145.579 78.7976 146.175 75.8577 147.382 73.0635C149.635 67.8724 153.268 63.9526 158.359 61.4497C160.308 60.483 162.402 59.94 164.563 59.6884C165.902 59.5295 167.228 59.503 168.567 59.609C171.086 59.7944 173.419 60.5757 175.474 62.0854C175.553 62.1516 175.646 62.2045 175.726 62.284C175.872 62.4164 176.017 62.4297 176.19 62.3502C176.481 62.2178 176.773 62.0986 177.065 61.9662C178.47 61.3173 179.849 60.6022 181.175 59.8076C181.466 59.6355 181.745 59.5428 182.076 59.5692C182.434 59.5825 182.792 59.5692 183.163 59.5825C183.282 59.5825 183.362 59.6619 183.362 59.7811C183.375 59.993 183.375 60.2049 183.375 60.4168C183.375 71.2625 183.375 82.1083 183.375 92.954C183.375 100.555 183.375 108.157 183.375 115.771C183.375 116.619 183.402 117.466 183.428 118.314C183.455 119.055 183.534 119.797 183.68 120.525C183.813 121.254 184.118 121.889 184.595 122.459C185.072 123.015 185.656 123.412 186.385 123.598C187.26 123.823 188.135 123.889 189.023 123.929C189.752 123.955 189.672 123.876 189.672 124.657C189.672 124.697 189.672 124.736 189.672 124.789C189.659 124.909 189.606 124.988 189.474 124.988C189.301 125.001 189.129 125.001 188.97 125.001C182.394 125.001 175.819 125.001 169.243 125.001C168.461 125.001 168.554 125.041 168.554 124.26C168.554 124.008 168.607 123.955 168.845 123.955C169.521 123.955 170.197 123.942 170.874 123.849C171.377 123.77 171.868 123.651 172.345 123.478C173.048 123.214 173.565 122.737 173.936 122.088C174.281 121.466 174.506 120.817 174.612 120.115C174.758 119.108 174.838 118.089 174.864 117.082C174.877 116.632 174.877 116.195 174.877 115.745C174.877 109.6 174.877 103.455 174.877 97.3109C174.877 97.099 174.864 96.9003 174.864 96.6885C174.824 96.6355 174.785 96.6222 174.745 96.609ZM174.877 82.4129C174.877 81.168 174.877 79.91 174.877 78.6652C174.877 76.7318 174.877 74.8116 174.877 72.8781C174.877 71.6068 174.758 70.3355 174.493 69.0907C174.214 67.8327 173.697 66.6806 172.822 65.7139C171.894 64.6942 170.794 63.9261 169.521 63.3964C168.262 62.8799 166.963 62.6945 165.61 62.721C163.9 62.7607 162.296 63.1977 160.838 64.085C158.597 65.4357 156.953 67.3427 155.813 69.6867C155.31 70.7196 154.952 71.8055 154.66 72.9046C154.063 75.1691 153.864 77.4866 153.785 79.8173C153.732 81.4329 153.811 83.0353 153.984 84.6376C154.143 86.2003 154.448 87.7364 154.912 89.2328C155.667 91.6695 156.927 93.8016 158.796 95.5496C161.461 98.0657 164.603 99.0324 168.222 98.357C170.98 97.8538 173.114 96.4236 174.572 94.0002C174.798 93.6294 174.904 93.2586 174.904 92.8084C174.877 89.3653 174.877 85.8824 174.877 82.4129Z" fill="white"/>
<path d="M226.17 78.1354C226.17 82.6512 226.156 87.1669 226.17 91.6694C226.17 92.8613 226.236 94.0399 226.302 95.2185C226.342 95.9336 226.435 96.6487 226.66 97.3373C226.753 97.6154 226.859 97.9067 227.005 98.1584C227.456 98.9529 228.145 99.3899 229.086 99.3767C229.67 99.3767 230.213 99.231 230.757 99.0456C230.995 98.9661 231.234 98.8602 231.459 98.7675C231.857 98.6086 231.844 98.4894 232.122 99.0191C232.48 99.7077 232.56 99.6018 231.791 99.9196C227.92 101.522 224.035 103.138 220.164 104.753C219.859 104.872 219.567 104.952 219.236 104.939C218.812 104.925 218.388 104.939 217.963 104.925C217.711 104.925 217.658 104.859 217.645 104.634C217.632 104.462 217.645 104.29 217.645 104.131C217.645 101.827 217.645 99.5091 217.645 97.2049C217.645 97.0195 217.645 96.8208 217.645 96.6354C217.645 96.5692 217.632 96.503 217.552 96.503C217.513 96.503 217.473 96.5163 217.446 96.5427C217.327 96.6619 217.208 96.7811 217.088 96.9003C215.736 98.2775 214.357 99.6283 212.899 100.886C212.051 101.615 211.176 102.317 210.221 102.939C208.763 103.879 207.159 104.462 205.448 104.753C204.269 104.952 203.089 105.005 201.895 104.872C200.066 104.66 198.409 103.985 196.964 102.846C195.055 101.337 193.848 99.3634 193.199 97.0195C192.881 95.8674 192.695 94.702 192.562 93.5234C192.35 91.5635 192.297 89.5903 192.31 87.6172C192.31 81.4991 192.31 75.3677 192.31 69.2496C192.31 68.2696 192.297 67.3029 192.191 66.3362C192.138 65.8462 192.059 65.3695 191.926 64.906C191.74 64.2174 191.396 63.6215 190.918 63.0917C190.362 62.4693 189.672 62.0853 188.864 61.9132C188.134 61.7675 187.392 61.7145 186.65 61.688C186.517 61.688 186.398 61.688 186.265 61.688C186.04 61.6748 185.987 61.6218 185.973 61.3702C185.973 60.5756 185.894 60.6418 186.676 60.6418C191.157 60.6418 195.625 60.6418 200.106 60.6418C200.212 60.6418 200.318 60.6418 200.424 60.6418C200.755 60.6551 200.782 60.6816 200.782 61.0127C200.782 61.198 200.782 61.3967 200.782 61.5821C200.782 70.7593 200.782 79.9232 200.782 89.1004C200.782 89.9744 200.795 90.8352 200.835 91.7092C200.888 92.8348 201.034 93.9472 201.325 95.0331C201.365 95.1787 201.405 95.3112 201.445 95.4568C202.055 97.5757 203.526 98.794 205.568 99.4032C207.066 99.8534 208.537 99.721 210.009 99.2178C211.507 98.6881 212.846 97.9067 214.079 96.9003C215.259 95.9336 216.346 94.8609 217.407 93.7618C217.579 93.5764 217.685 93.391 217.658 93.1394C217.645 93.0069 217.658 92.8878 217.658 92.7553C217.658 84.9554 217.658 77.1687 217.658 69.3688C217.658 68.3756 217.645 67.3824 217.513 66.3892C217.42 65.7403 217.287 65.0914 217.075 64.469C216.717 63.4228 216.015 62.7077 214.98 62.3104C214.198 62.0191 213.39 61.8602 212.568 61.7675C212.276 61.741 211.971 61.7278 211.679 61.688C211.361 61.6483 211.348 61.6351 211.335 61.2907C211.335 61.1583 211.335 61.0391 211.335 60.9067C211.348 60.6683 211.388 60.6286 211.653 60.6154C211.799 60.6154 211.945 60.6154 212.104 60.6154C216.532 60.6154 220.973 60.6154 225.401 60.6154C226.236 60.6154 226.156 60.5359 226.156 61.357C226.156 66.9454 226.156 72.547 226.156 78.1354C226.143 78.1354 226.156 78.1354 226.17 78.1354Z" fill="white"/>
<path d="M139.52 83.2606C139.52 86.8229 139.507 90.3852 139.533 93.9342C139.547 95.0598 139.56 96.1854 139.746 97.2978C139.812 97.7216 139.905 98.1321 140.077 98.5161C140.395 99.2577 140.965 99.6153 141.774 99.6418C142.291 99.655 142.782 99.5358 143.232 99.271C143.67 99.0194 144.094 98.728 144.492 98.4102C145.141 97.8937 145.778 97.3773 146.427 96.8608C146.52 96.7814 146.626 96.7019 146.732 96.6357C146.785 96.596 146.852 96.6225 146.878 96.7019C146.891 96.7681 146.891 96.8211 146.891 96.8873C146.891 97.3773 146.891 97.8673 146.891 98.344C146.891 98.5691 146.838 98.7545 146.692 98.9134C145.141 100.635 143.444 102.211 141.443 103.389C140.342 104.038 139.176 104.542 137.903 104.767C136.869 104.952 135.835 105.005 134.814 104.727C133.249 104.303 132.176 103.336 131.619 101.814C131.314 100.966 131.168 100.092 131.102 99.2048C131.075 98.8869 131.075 98.5691 131.049 98.2513C131.049 98.1718 130.929 98.1056 130.863 98.1454C130.704 98.2513 130.545 98.3572 130.399 98.4764C128.662 99.761 126.912 101.032 125.123 102.251C124.738 102.515 124.341 102.754 123.956 103.019C122.644 103.893 121.199 104.396 119.661 104.687C118.295 104.952 116.916 105.005 115.551 104.82C112.833 104.449 110.633 103.178 108.962 101.006C107.835 99.5491 107.212 97.8805 106.92 96.0663C106.748 94.9539 106.722 93.8282 106.801 92.7026C106.96 90.4779 107.795 88.5179 109.24 86.8229C110.447 85.4059 111.879 84.2538 113.417 83.2209C114.862 82.2541 116.399 81.4331 117.964 80.6783C121.543 78.9567 125.229 77.5133 128.941 76.136C129.537 75.9109 130.134 75.699 130.731 75.4871C130.943 75.4077 131.036 75.2885 131.036 75.0634C131.036 73.5537 131.049 72.0573 130.89 70.5609C130.784 69.5677 130.625 68.5877 130.346 67.6342C130.214 67.184 130.054 66.747 129.856 66.3232C129.206 64.9327 128.172 63.9395 126.767 63.3569C124.964 62.602 123.094 62.5093 121.225 63.039C119.343 63.582 118.096 64.84 117.46 66.694C117.301 67.184 117.235 67.6872 117.248 68.1904C117.274 69.0115 117.314 69.8458 117.341 70.6668C117.354 71.2627 117.288 71.8454 117.142 72.4281C116.797 73.7921 115.75 75.0634 113.814 75.3282C113.271 75.4077 112.714 75.4077 112.17 75.3017C110.725 74.9972 109.744 74.1231 109.227 72.7591C108.896 71.8984 108.83 70.9846 108.909 70.0709C109.055 68.4288 109.651 66.9456 110.633 65.6214C112.502 63.1052 114.941 61.3969 117.937 60.4832C119.237 60.0859 120.562 59.8343 121.928 59.6886C123.638 59.5032 125.361 59.5032 127.072 59.6092C129.458 59.7548 131.778 60.2183 133.965 61.2248C136.219 62.2577 137.77 63.9528 138.698 66.2305C139.043 67.078 139.176 67.9918 139.268 68.8923C139.48 70.7463 139.533 72.6135 139.533 74.4807C139.52 77.4073 139.533 80.334 139.533 83.2473C139.507 83.2606 139.507 83.2606 139.52 83.2606ZM131.049 86.7964C131.049 84.32 131.049 81.8436 131.049 79.3672C131.049 79.1818 131.049 78.9832 131.036 78.7978C131.036 78.6786 130.929 78.6124 130.81 78.6521C130.704 78.6786 130.611 78.7184 130.518 78.7581C128.318 79.6453 126.13 80.5591 123.969 81.539C122.538 82.1879 121.172 82.956 119.899 83.8698C119.091 84.4524 118.322 85.0881 117.632 85.8164C116.625 86.8891 115.896 88.1074 115.511 89.5244C115.18 90.7295 115.14 91.9345 115.299 93.1794C115.591 95.2982 116.532 97.033 118.202 98.3572C119.568 99.4431 121.119 99.8404 122.856 99.5226C123.824 99.3504 124.725 99.0061 125.613 98.5691C127.496 97.6554 129.166 96.4238 130.797 95.1393C130.982 94.9936 131.075 94.8347 131.062 94.5963C131.049 94.4507 131.062 94.305 131.062 94.1461C131.049 91.7094 131.049 89.2595 131.049 86.7964Z" fill="white"/>
<path d="M266.803 86.0019C267.201 86.2137 267.466 86.5448 267.784 86.8229C267.877 86.9024 267.837 87.0215 267.824 87.1275C267.731 87.9088 267.572 88.6769 267.387 89.4317C266.366 93.6032 264.377 97.2316 261.355 100.291C259.035 102.635 256.251 104.118 252.989 104.674C251.584 104.912 250.165 104.979 248.747 104.886C246.931 104.767 245.181 104.409 243.484 103.76C241.256 102.913 239.308 101.615 237.558 99.9994C234.509 97.1787 232.599 93.6959 231.645 89.6833C231.287 88.2001 231.088 86.6905 230.969 85.1676C230.836 83.3401 230.863 81.5258 231.009 79.7116C231.26 76.6525 231.884 73.6729 233.183 70.8787C235.171 66.5881 238.3 63.3966 242.569 61.344C244.425 60.4567 246.387 59.9535 248.415 59.7019C249.874 59.5298 251.345 59.5033 252.804 59.6225C260.228 60.2184 264.974 65.1049 266.764 70.3887C267.347 72.0971 267.692 73.8583 267.798 75.6726C267.824 76.1361 267.864 76.5996 267.877 77.063C267.89 77.4868 267.877 77.5001 267.466 77.5133C267.294 77.5133 267.122 77.5133 266.962 77.5133C257.696 77.5133 248.429 77.5133 239.162 77.5133C238.95 77.5133 238.738 77.5133 238.525 77.5133C238.366 77.5133 238.3 77.606 238.3 77.7649C238.3 77.8709 238.3 77.9768 238.3 78.0827C238.366 80.0824 238.539 82.0555 239.029 84.0022C240.103 88.2531 242.436 91.6167 246.069 94.0666C248.004 95.3644 250.126 96.1457 252.459 96.3841C254.752 96.6225 256.98 96.4238 259.154 95.6028C261.156 94.848 262.786 93.6296 263.993 91.8419C264.868 90.5573 265.557 89.1801 266.14 87.7366C266.326 87.2864 266.485 86.8229 266.657 86.3727C266.684 86.2535 266.75 86.1475 266.803 86.0019ZM248.336 74.3218C251.412 74.3218 254.487 74.3218 257.563 74.3218C257.749 74.3218 257.947 74.3218 258.133 74.3086C258.252 74.3086 258.332 74.2424 258.345 74.1232C258.345 74.0437 258.345 73.951 258.345 73.8716C258.239 72.7989 258.16 71.7263 257.974 70.6536C257.762 69.3823 257.377 68.1905 256.661 67.1046C256.118 66.2835 255.495 65.5419 254.726 64.9195C252.114 62.7875 249.184 62.165 245.963 63.198C244.027 63.8204 242.476 65.0255 241.19 66.5616C239.493 68.601 238.698 71.0112 238.38 73.5935C238.287 74.3483 238.234 74.3086 239.043 74.3086C242.145 74.3218 245.234 74.3218 248.336 74.3218Z" fill="white"/>
<path d="M0.410881 56.3378C0.516939 56.2981 0.569969 56.351 0.609741 56.3908C1.15329 56.8675 1.8029 57.1059 2.47902 57.3045C3.52635 57.5959 4.60019 57.7283 5.67404 57.8342C7.5168 58.0064 9.35957 57.9799 11.2023 57.9402C12.4353 57.9137 13.6549 57.8077 14.8879 57.7283C15.6038 57.6886 16.3197 57.6223 17.0488 57.5694C17.8575 57.5032 18.6529 57.4369 19.4616 57.3707C19.6738 57.3575 19.8859 57.3442 20.098 57.331C21.6226 57.2913 23.1472 57.2913 24.6718 57.4502C27.3232 57.7415 29.8952 58.3639 32.2682 59.622C36.0863 61.6349 38.6848 64.6939 40.0503 68.7727C40.1298 69.011 40.1961 69.2627 40.2624 69.501C40.3817 69.9115 40.448 70.3221 40.6071 70.7193C40.7131 70.971 40.7794 71.2491 40.7396 71.5271C40.7131 71.7655 40.5408 71.9112 40.3021 71.8582C40.0768 71.8052 39.8647 71.6993 39.6658 71.5801C39.1885 71.302 38.751 70.9577 38.3401 70.6002C37.7567 70.0837 37.1602 69.5672 36.6034 69.011C34.8534 67.263 32.7322 66.3228 30.2796 66.0712C28.8876 65.9255 27.4956 65.952 26.0903 66.0579C24.1415 66.2036 22.2192 66.4817 20.2836 66.6936C19.0374 66.826 17.7912 66.9452 16.545 67.0246C15.1928 67.1173 13.8273 67.1306 12.475 67.0909C11.4807 67.0644 10.4864 66.9717 9.5054 66.773C6.21758 66.0977 3.73847 64.2966 2.06805 61.3965C1.25935 59.9928 0.742313 58.4699 0.424137 56.8808C0.384365 56.6821 0.331337 56.4967 0.410881 56.3378Z" fill="#8CDFEF"/>
<path d="M7.56977 37.2153C8.21938 38.1158 9.13413 38.6455 10.0887 39.109C11.3746 39.7182 12.7269 40.1552 14.0924 40.526C16.2798 41.1219 18.4938 41.5722 20.7343 41.9562C22.1528 42.1946 23.5846 42.4197 24.9899 42.6978C27.5353 43.2143 29.9746 44.075 32.2019 45.4258C34.9064 47.0679 36.9745 49.2794 38.2207 52.206C39.0161 54.0865 39.4138 56.0332 39.3608 58.0858C39.3476 58.4831 39.321 58.8936 39.3873 59.2909C39.4271 59.5292 39.3608 59.7544 39.3078 59.9795C39.2415 60.2178 39.0294 60.2973 38.804 60.1781C38.6184 60.0854 38.4461 59.9398 38.3135 59.7808C38.0881 59.5027 37.8495 59.2247 37.6506 58.9333C37.2396 58.3109 36.8552 57.6885 36.4575 57.0529C36.2719 56.7483 36.0995 56.4304 35.8874 56.1391C34.9594 54.7751 33.7265 53.7819 32.2151 53.1065C31.0087 52.5636 29.736 52.2458 28.4368 52.0074C27.1906 51.769 25.9312 51.6234 24.6584 51.4644C22.471 51.1996 20.2835 50.9347 18.1358 50.458C16.7969 50.1667 15.4579 49.8224 14.1719 49.3191C12.7932 48.7762 11.5602 48.0213 10.5129 46.9619C9.17391 45.6112 8.35195 43.9956 7.87469 42.1813C7.46371 40.5392 7.42394 38.8839 7.56977 37.2153Z" fill="#35E0BC"/>
<path d="M15.8426 25.6816C16.3331 26.6086 17.0755 27.1251 17.871 27.5886C18.9315 28.211 20.0717 28.6745 21.2251 29.0982C23.4788 29.9193 25.7856 30.5549 28.1056 31.1244C29.9219 31.5614 31.6983 32.1176 33.382 32.9254C35.1187 33.7597 36.7096 34.7926 38.0486 36.1831C39.9709 38.1562 41.1243 40.5134 41.5088 43.2414C41.6811 44.4598 41.6944 45.6913 41.5088 46.9096C41.4822 47.1215 41.4822 47.3334 41.4822 47.5453C41.4822 47.7837 41.4425 48.0088 41.3497 48.2339C41.2701 48.4326 41.058 48.512 40.8857 48.3796C40.7531 48.2869 40.6205 48.1677 40.5277 48.022C40.3023 47.7174 40.0902 47.3996 39.9046 47.0686C39.5997 46.5124 39.2948 45.9562 39.0429 45.3735C38.0619 43.0163 36.2721 41.5331 33.9256 40.6459C32.6396 40.1559 31.3006 39.8248 29.9616 39.507C28.2117 39.0965 26.4484 38.7389 24.7117 38.2357C23.386 37.8517 22.0868 37.4014 20.8273 36.832C19.1702 36.0771 17.8047 34.978 16.8502 33.4021C16.2271 32.3692 15.8691 31.2436 15.6835 30.065C15.4581 28.6745 15.4979 27.284 15.7631 25.8935C15.7896 25.8538 15.8028 25.8141 15.8426 25.6816Z" fill="#FFBA01"/>
<path d="M26.223 15.2065C26.5677 16.1203 27.2041 16.7162 27.8802 17.2724C29.1661 18.3186 30.5979 19.1529 32.0562 19.9342C33.3422 20.6228 34.6547 21.2717 35.9937 21.8676C37.5978 22.596 39.1224 23.47 40.5144 24.5559C42.2246 25.8934 43.6166 27.4957 44.5049 29.5086C45.1677 31.0051 45.4594 32.5809 45.4064 34.2098C45.3798 34.9514 45.3003 35.693 45.1014 36.4081C44.9556 36.9378 44.823 37.4675 44.6639 37.9972C44.6109 38.1958 44.5579 38.4474 44.3193 38.4872C44.0674 38.5269 43.9613 38.2885 43.8685 38.1031C43.7359 37.8648 43.6166 37.6131 43.5371 37.3483C43.325 36.7259 43.0996 36.1035 42.9537 35.4678C42.503 33.5212 41.3629 32.091 39.7322 30.9918C38.6716 30.2767 37.5315 29.7338 36.3649 29.2173C34.9596 28.5816 33.5278 27.9857 32.149 27.2971C30.9294 26.6879 29.7627 26.0258 28.6624 25.218C27.8139 24.5956 27.0847 23.8673 26.5412 22.9668C25.8916 21.9206 25.5469 20.7817 25.4806 19.5501C25.4143 18.2391 25.5867 16.9811 25.9976 15.7362C26.0109 15.5641 26.0507 15.3919 26.223 15.2065Z" fill="#F40155"/>
<path d="M40.594 6.18799C40.5675 7.04876 40.8459 7.68441 41.1774 8.29357C41.5883 9.06165 42.0921 9.76351 42.6224 10.4521C43.8951 12.1207 45.3269 13.6569 46.7852 15.1665C47.7662 16.173 48.681 17.2191 49.4897 18.3712C50.484 19.8015 51.306 21.3376 51.7302 23.0327C52.4196 25.7209 52.0218 28.237 50.484 30.5545C50.073 31.1769 49.5162 31.6801 49.0655 32.2628C48.9594 32.3952 48.8268 32.5277 48.6412 32.4747C48.4556 32.4217 48.4026 32.2496 48.3761 32.0774C48.3231 31.7596 48.27 31.455 48.2965 31.1239C48.3363 30.528 48.3496 29.9321 48.4424 29.3494C48.6412 27.9854 48.4159 26.7009 47.806 25.4693C47.3818 24.635 46.8382 23.8802 46.2417 23.1651C45.539 22.3176 44.7568 21.5362 43.9879 20.7417C42.9936 19.722 41.9993 18.7156 41.0846 17.6297C40.4482 16.8881 39.8516 16.12 39.3213 15.2989C38.7645 14.4647 38.3668 13.5642 38.1812 12.571C38.0089 11.6572 38.0752 10.7567 38.3138 9.86945C38.685 8.49221 39.4672 7.32686 40.594 6.18799Z" fill="#FD7B03"/>
<path d="M55.9326 103.747C55.694 103.694 55.6144 103.482 55.4818 103.323C54.5141 102.065 53.5463 100.807 52.605 99.5226C50.391 96.5033 48.2699 93.4045 46.3608 90.1865C45.0218 87.922 43.7889 85.6178 42.8476 83.1546C41.9726 80.8504 41.2965 78.5065 40.8988 76.0698C40.8458 75.7123 40.7927 75.3547 40.753 74.9972C40.7397 74.9309 40.753 74.8647 40.753 74.7588C40.9651 74.9177 41.0181 75.1428 41.1109 75.3282C42.4101 78.0165 43.8021 80.6518 45.287 83.2473C46.7585 85.8032 48.3096 88.2928 50.0729 90.6632C51.1202 92.0802 52.2338 93.431 53.5198 94.6493C53.8777 94.9804 54.2489 95.2982 54.6201 95.616C55.7337 96.5827 56.4629 97.7613 56.7015 99.218C56.8606 100.185 56.8076 101.165 56.5689 102.118C56.4629 102.529 56.317 102.926 56.1845 103.323C56.1182 103.469 56.0784 103.628 55.9326 103.747Z" fill="white"/>
<path d="M58.0405 17.8166C58.0272 19.7103 57.656 21.5113 56.7943 23.2063C56.3436 24.0803 55.747 24.8484 55.1239 25.59C55.0708 25.6562 55.0046 25.7092 54.925 25.7489C54.8455 25.7886 54.7527 25.7622 54.7129 25.6827C54.5936 25.4576 54.6334 25.2324 54.6731 24.9941C54.7792 24.2657 54.9118 23.5374 55.0841 22.809C55.2565 22.1337 55.3625 21.4318 55.336 20.7299C55.3095 19.8692 55.1636 19.0084 54.8985 18.1741C54.6201 17.3001 54.2754 16.4658 53.8777 15.6448C53.2413 14.3072 52.605 12.9697 51.9952 11.619C51.5311 10.5728 51.1467 9.50015 50.8948 8.37453C50.4175 6.20273 50.8153 4.1766 51.9554 2.2829C52.2205 1.84589 52.5122 1.43537 52.8569 1.06457C52.8834 1.03809 52.9364 1.03809 52.9762 1.03809C53.0292 1.03809 53.0557 1.06457 53.0557 1.11754C53.0557 1.14403 53.069 1.15727 53.069 1.18376C53.016 2.41532 53.4004 3.56744 53.7981 4.70631C54.3284 6.24246 54.9913 7.73888 55.7072 9.20881C56.2773 10.3874 56.8341 11.5793 57.2185 12.8373C57.7223 14.4529 58.0537 16.1082 58.0405 17.8166Z" fill="#888888"/>
<path d="M60.2676 20.4249C60.1748 20.4381 60.082 20.3189 60.082 20.213C60.082 20.0143 60.1748 19.8422 60.2809 19.6833C60.5991 19.1801 60.9172 18.6901 61.2487 18.1869C61.4608 17.869 61.6597 17.5512 61.832 17.2069C62.1237 16.5977 62.2827 15.9488 62.4021 15.2735C62.5346 14.5319 62.4949 13.8035 62.5081 13.0619C62.5081 12.7706 62.5346 12.466 62.4153 12.1879C62.4021 12.1482 62.3888 12.1085 62.4021 12.0687C62.4551 11.2874 62.2297 10.5193 62.2562 9.72479C62.2695 9.44669 62.2165 9.18184 62.1899 8.90374C62.1237 8.16215 62.0971 7.4338 62.2032 6.69221C62.2297 6.54655 62.2562 6.40088 62.2562 6.25521C62.296 4.7323 62.8793 3.42127 63.8471 2.2824C64.3907 1.64676 65.1066 1.22299 65.8224 0.812469C65.8755 0.785983 65.9418 0.772741 66.0081 0.759498C66.0876 0.733013 66.1804 0.825711 66.1671 0.905167C66.1274 1.05084 66.0743 1.18326 66.0346 1.32893C65.8357 2.01755 65.7031 2.71941 65.7031 3.44776C65.7031 4.25556 65.6899 5.06337 65.7031 5.85793C65.7031 6.3479 65.6766 6.82464 65.8092 7.31462C65.8622 7.53975 65.8224 7.77811 65.8357 8.01648C65.849 8.34755 65.8224 8.69186 65.9285 9.02293C65.9683 9.15535 65.955 9.31426 65.955 9.45993C65.955 9.85721 65.955 10.2677 65.955 10.665C65.9418 12.3733 65.6766 14.0287 65.0403 15.6178C64.5497 16.8626 63.8206 17.9882 62.8396 18.9152C62.1369 19.5773 61.2884 20.0143 60.4267 20.4116C60.3472 20.4249 60.3074 20.4249 60.2676 20.4249Z" fill="#CCCCCC"/>
<path d="M68.5801 13.7762C68.5536 13.7364 68.5138 13.6967 68.527 13.6702C68.5668 13.551 68.6066 13.4319 68.6729 13.3259C68.8982 12.9949 69.1236 12.6505 69.3888 12.3592C70.1842 11.4852 70.635 10.4523 70.8736 9.32664C70.9929 8.7572 71.0459 8.16128 71.152 7.5786C71.2846 6.81053 71.3509 6.04245 71.4967 5.27438C71.6293 4.57251 71.7751 3.87065 72.0005 3.19528C72.4114 1.96371 73.1671 1.01024 74.2409 0.281889C74.3868 0.18919 74.5326 0.122976 74.6917 0.04352C74.7712 0.00379196 74.8508 -0.0359363 74.9171 0.0567625C74.9701 0.136219 74.9568 0.215675 74.9171 0.295131C74.4265 1.2486 74.294 2.29477 74.0819 3.3277C73.8963 4.18848 73.8167 5.07574 73.6841 5.94975C73.4853 7.27402 73.1406 8.55856 72.597 9.76364C71.9739 11.1409 71.0725 12.293 69.8263 13.167C69.4816 13.4186 69.0839 13.5643 68.6994 13.7497C68.6729 13.7894 68.6198 13.7762 68.5801 13.7762Z" fill="#CCCCCC"/>
</svg>
